<?xml version="1.0" encoding="UTF-8"?>
<svg width="107px" height="33px" viewBox="0 0 107 33" version="1.1" xmlns="http://www.w3.org/2000/svg" xmlns:xlink="http://www.w3.org/1999/xlink">
    <!-- Generator: Sketch 61.2 (89653) - https://sketch.com -->
    <title>Bolby</title>
    <desc>Created with Sketch.</desc>
    <g id="Symbols" stroke="none" stroke-width="1" fill="none" fill-rule="evenodd">
        <g id="header" transform="translate(-42.000000, -61.000000)" fill-rule="nonzero">
            <g id="Bolby.">
                <g transform="translate(42.448000, 61.440000)">
                    <path d="M507.999 106.995l36.0051 -106.995 204.991 0 -293.999 739.996 -148.999 0 -296.998 -739.996 203.002 0 39.0047 106.995 256.994 0zm-129.002 403.004l1.99971 0 0.999856 0 75.9993 -252.994 -154.998 0 75.9993 252.994z" id="Bolby" fill="#FFFFFF"></path>
                    <path d="M105.048,25.56 C105.312,25.56 105.528,25.47 105.696,25.29 C105.864,25.11 105.948,24.9 105.948,24.66 L105.948,24.66 L105.948,19.908 C105.948,19.644 105.864,19.422 105.696,19.242 C105.528,19.062 105.312,18.972 105.048,18.972 L105.048,18.972 L100.296,18.972 C100.032,18.972 99.81,19.062 99.63,19.242 C99.45,19.422 99.36,19.644 99.36,19.908 L99.36,19.908 L99.36,24.66 C99.36,24.924 99.45,25.14 99.63,25.308 C99.81,25.476 100.032,25.56 100.296,25.56 L100.296,25.56 L105.048,25.56 Z" id="." fill="#FF4C60"></path>
                </g>
            </g>
        </g>
    </g>
</svg>
